<?xml version="1.0" encoding="UTF-8"?>
<svg xmlns="http://www.w3.org/2000/svg" viewBox="0 0 416 210" width="416" height="210" role="img" aria-label="KM-04 · Go-against Israel likelihood timeline">
  <defs>
    <linearGradient id="bgKM04Goagains" x1="0" y1="0" x2="0" y2="1">
      <stop offset="0%" stop-color="#f8fafc"/>
      <stop offset="100%" stop-color="#eef2ff"/>
    </linearGradient>
    <linearGradient id="cvKM04Goagains" x1="0" y1="0" x2="1" y2="0">
      <stop offset="0%" stop-color="#0ea5e9"/>
      <stop offset="55%" stop-color="#f59e0b"/>
      <stop offset="100%" stop-color="#ef4444"/>
    </linearGradient>
  </defs>
  <rect width="416" height="210" rx="12" fill="url(#bgKM04Goagains)" stroke="#cbd5e1" stroke-width="1"/>
  <text x="44" y="20" font-family="system-ui,Segoe UI,sans-serif" font-size="12" font-weight="700" fill="#0f172a">KM-04 · Go-against Israel</text>
  <text x="396" y="20" text-anchor="end" font-family="system-ui,Segoe UI,sans-serif" font-size="10" fill="#64748b">bar height = relative likelihood</text>
  <line x1="44" y1="158" x2="396" y2="158" stroke="#94a3b8" stroke-width="1.5"/>
  <text x="38" y="50" text-anchor="end" font-family="system-ui,Segoe UI,sans-serif" font-size="8" fill="#94a3b8">high</text>
  <text x="38" y="158" text-anchor="end" font-family="system-ui,Segoe UI,sans-serif" font-size="8" fill="#94a3b8">low</text>
  <rect x="50.2" y="150.6" width="31.7" height="7.4" rx="2.5" fill="rgb(42,125,173)" fill-opacity="0.43"/><rect x="94.2" y="99.0" width="31.7" height="59.0" rx="2.5" fill="rgb(129,159,130)" fill-opacity="0.67"/><rect x="138.2" y="40.0" width="31.7" height="118.0" rx="2.5" fill="rgb(230,200,80)" fill-opacity="0.95"/><rect x="182.2" y="91.7" width="31.7" height="66.3" rx="2.5" fill="rgb(142,164,123)" fill-opacity="0.71"/><rect x="226.2" y="91.7" width="31.7" height="66.3" rx="2.5" fill="rgb(142,164,123)" fill-opacity="0.71"/><rect x="270.2" y="40.0" width="31.7" height="118.0" rx="2.5" fill="rgb(230,200,80)" fill-opacity="0.95"/><rect x="314.2" y="99.0" width="31.7" height="59.0" rx="2.5" fill="rgb(129,159,130)" fill-opacity="0.67"/><rect x="358.2" y="150.6" width="31.7" height="7.4" rx="2.5" fill="rgb(42,125,173)" fill-opacity="0.43"/>
  <path d="M 66.0,150.6 L 110.0,99.0 L 154.0,40.0 L 198.0,91.7 L 242.0,91.7 L 286.0,40.0 L 330.0,99.0 L 374.0,150.6" fill="none" stroke="url(#cvKM04Goagains)" stroke-width="2.4" stroke-linecap="round" stroke-linejoin="round" opacity="0.92"/>
  <circle cx="154.0" cy="40.0" r="4.2" fill="#f59e0b" stroke="#fff" stroke-width="1.5"/>
  <text x="154.0" y="30.0" text-anchor="middle" font-family="system-ui,Segoe UI,sans-serif" font-size="11" font-weight="700" fill="#b45309">AUG 13–16</text>
  <line x1="66.0" y1="158" x2="66.0" y2="163" stroke="#64748b" stroke-width="1.2"/><text x="66.0" y="196" text-anchor="middle" font-family="system-ui,Segoe UI,sans-serif" font-size="10" font-weight="600" fill="#334155">AUG 11</text><line x1="110.0" y1="158" x2="110.0" y2="163" stroke="#64748b" stroke-width="1.2"/><text x="110.0" y="196" text-anchor="middle" font-family="system-ui,Segoe UI,sans-serif" font-size="10" font-weight="600" fill="#334155">AUG 12</text><line x1="154.0" y1="158" x2="154.0" y2="163" stroke="#64748b" stroke-width="1.2"/><text x="154.0" y="196" text-anchor="middle" font-family="system-ui,Segoe UI,sans-serif" font-size="10" font-weight="600" fill="#334155">AUG 13</text><line x1="198.0" y1="158" x2="198.0" y2="163" stroke="#64748b" stroke-width="1.2"/><text x="198.0" y="196" text-anchor="middle" font-family="system-ui,Segoe UI,sans-serif" font-size="10" font-weight="600" fill="#334155">AUG 14</text><line x1="242.0" y1="158" x2="242.0" y2="163" stroke="#64748b" stroke-width="1.2"/><text x="242.0" y="196" text-anchor="middle" font-family="system-ui,Segoe UI,sans-serif" font-size="10" font-weight="600" fill="#334155">AUG 15</text><line x1="286.0" y1="158" x2="286.0" y2="163" stroke="#64748b" stroke-width="1.2"/><text x="286.0" y="196" text-anchor="middle" font-family="system-ui,Segoe UI,sans-serif" font-size="10" font-weight="600" fill="#334155">AUG 16</text><line x1="330.0" y1="158" x2="330.0" y2="163" stroke="#64748b" stroke-width="1.2"/><text x="330.0" y="196" text-anchor="middle" font-family="system-ui,Segoe UI,sans-serif" font-size="10" font-weight="600" fill="#334155">AUG 17</text><line x1="374.0" y1="158" x2="374.0" y2="163" stroke="#64748b" stroke-width="1.2"/><text x="374.0" y="196" text-anchor="middle" font-family="system-ui,Segoe UI,sans-serif" font-size="10" font-weight="600" fill="#334155">AUG 18</text>
  <text x="44" y="208" font-family="system-ui,Segoe UI,sans-serif" font-size="8.5" fill="#94a3b8">Domain: AUG 11–18 2025 · Bimodal AUG 13 (reels) + AUG 16 (indexes KB155)</text>
</svg>
